#define noname_width 64
#define noname_height 64
static char noname_bits[] = {
 0x11,0xd1,0xff,0xff,0xff,0xff,0x11,0x11,0x11,0xf1,0xff,0xff,0xff,0xff,0x13,
 0x11,0x44,0xf4,0x00,0xfc,0x3f,0x00,0x47,0x44,0x44,0x7c,0xfe,0xff,0xff,0x7f,
 0x4e,0x44,0x11,0x3d,0x01,0x80,0x03,0x80,0x1c,0x11,0x11,0x9f,0x00,0x00,0x01,
 0x00,0x39,0x11,0x44,0x4f,0x00,0x20,0x0c,0x00,0x72,0x44,0xc4,0x27,0x44,0x30,
 0x12,0x20,0xe4,0x44,0xd1,0x13,0x66,0x20,0x10,0x30,0xc8,0x11,0xf1,0x09,0x44,
 0x20,0x0c,0x20,0x90,0x13,0xf4,0x04,0x44,0x20,0x02,0x20,0x20,0x47,0x7c,0x02,
 0x44,0x70,0x1e,0x20,0x40,0x4e,0x3d,0x01,0xee,0x00,0x00,0x70,0x80,0x1c,0x9f,
 0x00,0x00,0x00,0x00,0x00,0x00,0x39,0x4f,0x00,0x00,0x00,0x00,0x00,0x00,0x72,
 0x27,0x00,0x00,0x00,0x00,0x00,0x00,0xe4,0x13,0x64,0x00,0x00,0x00,0x00,0x30,
 0xc8,0x0b,0x96,0x00,0x00,0x00,0x00,0x48,0xd0,0x0b,0x94,0x00,0x00,0x00,0x00,
 0x40,0xd0,0x0b,0x94,0x00,0x00,0x00,0x00,0x30,0xd0,0x0b,0x94,0x00,0x00,0x00,
 0x00,0x08,0xd0,0x0b,0x6e,0x00,0x00,0x00,0x00,0x78,0xd0,0x0b,0x00,0x00,0x00,
 0x00,0x00,0x00,0xd0,0x0b,0x00,0x00,0x00,0x00,0x00,0x00,0xd0,0x0b,0x00,0x00,
 0x00,0x00,0x00,0x00,0xd0,0x0b,0x00,0x00,0x00,0x00,0x00,0x00,0xd0,0x0f,0x00,
 0x00,0x00,0x00,0x00,0x00,0xf0,0x0f,0x00,0x00,0x00,0x00,0x00,0x00,0xf0,0x0f,
 0x00,0x00,0x00,0x00,0x00,0x00,0xf0,0x0f,0x03,0x00,0x80,0x01,0x00,0xc0,0xf0,
 0x8f,0x04,0x00,0xc0,0x03,0x00,0x20,0xf1,0x9f,0x04,0x00,0xe0,0x07,0x00,0x80,
 0xf8,0x3f,0x07,0x00,0xe0,0x07,0x00,0x00,0xfd,0x1f,0x04,0x00,0xc0,0x03,0x00,
 0x20,0xf9,0x0f,0x03,0x00,0x80,0x01,0x00,0xc0,0xf0,0x0f,0x00,0x00,0x00,0x00,
 0x00,0x00,0xf0,0x0f,0x00,0x00,0x00,0x00,0x00,0x00,0xf0,0x0f,0x00,0x00,0x00,
 0x00,0x00,0x00,0xf0,0x0b,0x00,0x00,0x00,0x00,0x00,0x00,0xd0,0x0b,0x00,0x00,
 0x00,0x00,0x00,0x00,0xd0,0x0b,0x00,0x00,0x00,0x00,0x00,0x00,0xd0,0x0b,0x0c,
 0x00,0x00,0x00,0x00,0x40,0xd0,0x0b,0x12,0x00,0x00,0x00,0x00,0x60,0xd0,0x0b,
 0x0c,0x00,0x00,0x00,0x00,0x50,0xd0,0x0b,0x12,0x00,0x00,0x00,0x00,0xf0,0xd0,
 0x0b,0x12,0x00,0x00,0x00,0x00,0x40,0xd0,0x0b,0x0c,0x00,0x00,0x00,0x00,0x40,
 0xd0,0x13,0x00,0x00,0x00,0x00,0x00,0x00,0xc8,0x27,0x00,0x00,0x00,0x00,0x00,
 0x00,0xe4,0x4f,0x00,0x00,0x00,0x00,0x00,0x00,0xf2,0x9c,0x00,0x1e,0x00,0x00,
 0xf0,0x00,0x79,0x3c,0x01,0x10,0x80,0x01,0x10,0x80,0x7c,0x71,0x02,0x08,0x40,
 0x00,0x70,0x40,0x1e,0xf1,0x04,0x08,0xc0,0x01,0x80,0x20,0x1f,0xc4,0x09,0x04,
 0x40,0x02,0x90,0x90,0x47,0xc4,0x13,0x04,0x40,0x02,0x60,0xc8,0x47,0x11,0x27,
 0x00,0x80,0x01,0x00,0xe4,0x11,0x11,0x4f,0x00,0x00,0x00,0x00,0xf2,0x11,0x44,
 0x9c,0x00,0x00,0x01,0x00,0x79,0x44,0x44,0x3c,0x01,0x80,0x03,0x80,0x7c,0x44,
 0x11,0x71,0xfe,0xff,0xff,0x7f,0x1e,0x11,0x11,0xf1,0x00,0xfc,0x3f,0x00,0x1f,
 0x11,0x44,0xc4,0xff,0xff,0xff,0xff,0x47,0x44,0x44,0xc4,0xff,0xff,0xff,0xff,
 0x47,0x44};
