#define homer-left_width 76
#define homer-left_height 130
static char homer-left_bits[] = {
 0x00,0x00,0x00,0x00,0x00,0x00,0x00,0x00,0x00,0x00,0x00,0x00,0x00,0x00,0x00,
 0x00,0x00,0x00,0x00,0x00,0x00,0x00,0x00,0x00,0x00,0x00,0x00,0x00,0x00,0x00,
 0x00,0x00,0x00,0x00,0xfc,0xef,0x03,0x00,0x00,0x00,0x00,0x00,0x00,0x00,0x03,
 0x3c,0x0c,0x00,0x00,0x00,0x00,0x00,0x00,0xc0,0x00,0x43,0x30,0x00,0x00,0x00,
 0x00,0x00,0x00,0x20,0x80,0x40,0x40,0x00,0x00,0x00,0x00,0x00,0x00,0x20,0x40,
 0x80,0x80,0x00,0x00,0x00,0x00,0x00,0x00,0x10,0x20,0x00,0x01,0x01,0x00,0x00,
 0x00,0x00,0x00,0x10,0x90,0x01,0x02,0x02,0x00,0x00,0x00,0x00,0x00,0x08,0x7e,
 0x3e,0x02,0x04,0x00,0x00,0x00,0x00,0x00,0xe8,0x01,0xc0,0x05,0x04,0x00,0x00,
 0x00,0x00,0x00,0x18,0x00,0x00,0x0e,0x08,0x00,0x00,0x00,0x00,0x00,0x04,0x00,
 0x00,0x34,0x08,0x00,0x00,0x00,0x00,0x00,0x03,0x00,0x00,0xc4,0x10,0x00,0x00,
 0x00,0x00,0xc0,0x00,0x00,0x00,0x04,0x11,0x00,0x00,0x00,0x00,0x20,0x00,0x00,
 0x00,0x04,0x12,0x00,0x00,0x00,0x00,0x20,0x00,0x00,0x00,0x08,0x14,0x00,0x00,
 0x00,0x00,0x10,0x00,0x00,0x00,0x08,0x18,0x00,0x00,0x00,0x00,0x08,0x00,0x00,
 0x00,0x00,0x10,0x00,0x00,0x00,0x00,0x08,0x00,0x00,0x00,0x00,0x30,0x00,0x00,
 0x00,0x00,0x04,0x00,0x00,0x00,0x00,0x50,0x00,0x00,0x00,0x00,0x02,0x00,0x00,
 0x00,0x00,0x90,0x00,0x00,0x00,0x00,0x02,0x00,0x00,0x00,0x00,0x80,0x00,0x00,
 0x00,0x00,0x02,0x00,0x00,0x00,0x00,0x00,0x01,0x00,0x00,0x00,0x01,0x00,0x00,
 0x00,0x00,0x00,0x01,0x00,0x00,0x00,0x01,0x00,0x00,0x00,0x00,0x00,0x02,0x00,
 0x00,0x00,0x01,0x00,0x00,0x00,0x00,0x00,0x02,0x00,0x00,0x80,0x00,0x00,0x00,
 0x00,0x00,0x00,0x04,0x00,0x00,0x80,0x00,0x00,0x00,0x00,0x00,0x00,0x04,0x00,
 0x00,0x80,0x00,0x00,0x00,0x00,0x00,0x00,0x04,0x00,0x00,0x80,0x00,0x00,0x00,
 0x00,0x00,0x00,0x04,0x00,0x00,0x40,0x00,0x00,0x00,0x00,0x00,0x00,0x04,0x00,
 0x00,0x40,0x00,0x00,0x00,0x00,0x00,0x00,0x08,0x00,0x00,0x40,0x00,0x00,0x00,
 0x00,0x00,0x00,0x08,0x00,0x00,0x40,0x00,0x00,0x00,0x00,0x00,0x00,0x08,0x00,
 0x00,0x40,0x00,0x00,0x00,0x00,0x00,0x00,0x08,0x00,0x00,0x70,0x00,0x00,0x00,
 0x00,0x00,0x00,0x08,0x00,0x00,0x08,0x00,0x00,0x00,0x00,0x00,0x00,0x08,0x00,
 0x00,0x04,0x00,0x00,0x00,0x00,0x00,0x00,0x08,0x00,0x00,0x02,0x00,0x00,0x00,
 0x00,0x00,0x00,0x08,0x00,0x00,0x02,0x00,0x00,0x00,0x00,0x00,0x00,0x08,0x00,
 0x00,0x02,0x00,0x00,0x00,0x00,0x00,0x00,0x04,0x00,0x00,0x02,0x07,0xc0,0x3f,
 0x00,0x00,0x00,0x04,0x00,0x00,0xf2,0x38,0x38,0xc0,0x01,0x00,0x00,0x04,0x00,
 0x00,0x0c,0x40,0x04,0x00,0x06,0x00,0x00,0x04,0x00,0x00,0x03,0x80,0x02,0x00,
 0x08,0x00,0x00,0x04,0x00,0x80,0x00,0x80,0x01,0x00,0x10,0x00,0x00,0x04,0x00,
 0x40,0x00,0x80,0x00,0x00,0x20,0x00,0x00,0x04,0x00,0x40,0x00,0x80,0x00,0x00,
 0x40,0x00,0x00,0x04,0x00,0x20,0x00,0x40,0x00,0x00,0x40,0x00,0x00,0x02,0x00,
 0x20,0x00,0x40,0x00,0x00,0x80,0x00,0x00,0x02,0x00,0x20,0x00,0x40,0x00,0x00,
 0x80,0x00,0x00,0x02,0x00,0x20,0x30,0x40,0x00,0x38,0x80,0x00,0x00,0x01,0x00,
 0x20,0x78,0x40,0x00,0x78,0x00,0x01,0x20,0x01,0x00,0x20,0x70,0x40,0x00,0x78,
 0x00,0x01,0xd0,0x00,0x00,0x20,0x20,0x40,0x00,0x70,0x00,0x01,0xc8,0x00,0x00,
 0x40,0x00,0x80,0x00,0x00,0x00,0x01,0xc4,0xc0,0x00,0x40,0x00,0x80,0x00,0x00,
 0x00,0x01,0xc2,0x40,0x01,0x80,0x00,0x00,0x01,0x00,0x80,0x00,0xc2,0x20,0x01,
 0x00,0x01,0x80,0x02,0x00,0x80,0x00,0xc1,0x10,0x01,0x00,0xfa,0x7f,0x02,0x00,
 0x40,0x80,0xc0,0x10,0x01,0x00,0x04,0x00,0x04,0x00,0x40,0x80,0x40,0x08,0x01,
 0x00,0x02,0x00,0x18,0x00,0x30,0x40,0x40,0x04,0x01,0x00,0x02,0x00,0x60,0x00,
 0x0c,0x20,0x40,0x04,0x01,0x00,0x01,0x00,0x80,0x03,0x03,0x00,0x40,0x02,0x01,
 0x00,0x01,0x00,0x00,0xfc,0x00,0x00,0xd8,0x01,0x01,0x00,0x01,0x00,0x00,0x00,
 0x00,0x00,0x66,0x00,0x01,0x00,0x01,0x00,0x00,0x00,0x00,0x00,0x81,0x01,0x01,
 0x00,0x02,0x00,0x00,0x00,0x00,0x80,0x00,0x02,0x01,0x00,0x0c,0x80,0x00,0x00,
 0x00,0x00,0x00,0x04,0x01,0x00,0x30,0x70,0x00,0x00,0x00,0x00,0x1c,0x04,0x00,
 0x00,0xd8,0x5f,0x00,0x00,0x00,0x00,0x20,0x08,0x00,0x00,0xac,0xaa,0x07,0x00,
 0x00,0x00,0xe0,0x08,0x00,0x00,0x56,0x55,0x3d,0x00,0x00,0x00,0xa0,0x08,0x00,
 0x00,0xab,0xaa,0xea,0x01,0x00,0x00,0x20,0x09,0x00,0x80,0x55,0x55,0x55,0x0f,
 0x00,0x00,0x18,0x09,0x00,0x80,0xaa,0xaa,0xaa,0x3a,0x00,0x00,0x04,0x08,0x00,
 0x40,0x55,0x55,0x55,0x55,0x00,0x00,0x00,0x08,0x00,0xc0,0xaa,0xaa,0xaa,0xaa,
 0x00,0x20,0x00,0x04,0x00,0x60,0x55,0x55,0x55,0x55,0x03,0x40,0x00,0x02,0x00,
 0xa0,0xaa,0xaa,0xaa,0xaa,0x06,0x80,0x83,0x01,0x00,0x50,0x55,0x55,0x55,0x55,
 0x0d,0x00,0x7c,0x00,0x00,0xb0,0xaa,0xaa,0xaa,0xaa,0x1a,0x00,0x20,0x00,0x00,
 0x58,0x55,0x55,0x55,0x55,0x15,0x00,0x20,0x00,0x00,0xa8,0xaa,0xaa,0xaa,0xaa,
 0x2a,0x00,0x20,0x00,0x00,0x50,0x55,0x55,0x55,0x55,0x55,0x00,0x20,0x00,0x00,
 0xb0,0xaa,0xaa,0xaa,0xaa,0x6a,0x00,0x20,0x00,0x00,0x60,0x55,0x55,0x55,0xd5,
 0x55,0x00,0x20,0x00,0x00,0x80,0xab,0xaa,0xaa,0xaa,0xab,0x00,0x20,0x00,0x00,
 0x00,0xfe,0xff,0xff,0xff,0xd5,0x00,0x20,0x00,0x00,0x00,0x00,0xac,0xaa,0xaa,
 0xab,0x01,0xc0,0x00,0x00,0x00,0x00,0x56,0x55,0xd5,0x55,0x01,0x40,0x01,0x00,
 0x00,0x00,0xaa,0xaa,0xaa,0xaa,0x01,0xc0,0x02,0x00,0x00,0x00,0x54,0x55,0x55,
 0x55,0x01,0x80,0x04,0x00,0x00,0x00,0xf8,0xaa,0xaa,0xaa,0x00,0x40,0x04,0x00,
 0x00,0x00,0x40,0x55,0x55,0xd5,0x00,0x40,0x08,0x00,0x00,0x00,0x80,0xaa,0xaa,
 0xaa,0x00,0x20,0x10,0x00,0x00,0x00,0x80,0x55,0x55,0x55,0x00,0x10,0x10,0x00,
 0x00,0x00,0x00,0xab,0xaa,0x6a,0x00,0x08,0x20,0x00,0x00,0x00,0x00,0x55,0x55,
 0x35,0x00,0x04,0x20,0x00,0x00,0x00,0x00,0xaa,0xaa,0x1a,0x00,0x03,0x40,0x00,
 0x00,0x00,0x00,0x54,0x55,0x15,0x80,0x00,0x40,0x00,0x00,0x00,0x00,0xac,0xaa,
 0x0e,0x60,0x00,0x80,0x00,0x00,0x00,0x00,0x54,0x55,0x03,0x18,0x00,0x80,0x00,
 0x00,0x00,0x00,0xa6,0xaa,0x01,0x04,0x00,0x00,0x01,0x00,0x00,0x80,0xc5,0x7f,
 0x00,0x03,0x00,0x80,0x00,0x00,0x00,0x40,0x04,0x00,0xc0,0x00,0x00,0x40,0x00,
 0x00,0x00,0x20,0x04,0x00,0x20,0x00,0x00,0x20,0x00,0x00,0x00,0x10,0x02,0x00,
 0x18,0x00,0x00,0x20,0x00,0x00,0x00,0x28,0x02,0x00,0x06,0x00,0x00,0x10,0x00,
 0x00,0x00,0x28,0x02,0x00,0x01,0x00,0x00,0x08,0x00,0x00,0x00,0x44,0x01,0x80,
 0x00,0x00,0x00,0x06,0x00,0x00,0x00,0x44,0x01,0xc0,0x00,0x00,0x00,0x01,0x00,
 0x00,0x00,0x82,0x00,0xa0,0x00,0x00,0x80,0x00,0x00,0x00,0x00,0x82,0x00,0x10,
 0x01,0x00,0x40,0x00,0x00,0x00,0x00,0x01,0x01,0x08,0x02,0x00,0x20,0x00,0x00,
 0x00,0x00,0x01,0x01,0x08,0x02,0x00,0x18,0x00,0x00,0x00,0x00,0x01,0x02,0x04,
 0x04,0x00,0x04,0x00,0x00,0x00,0x80,0x00,0x02,0x02,0x04,0x00,0x02,0x00,0x00,
 0x00,0x80,0x00,0x04,0x01,0x08,0x00,0x01,0x00,0x00,0x00,0x40,0x00,0x84,0x00,
 0x08,0x80,0x00,0x00,0x00,0x00,0x40,0x00,0x4e,0x00,0x10,0x60,0x00,0x00,0x00,
 0x00,0x40,0xe0,0x29,0x00,0x20,0x10,0x00,0x00,0x00,0x00,0xc0,0x1f,0x10,0x00,
 0x20,0x08,0x00,0x00,0x00,0x00,0x00,0x00,0x00,0x00,0x40,0x06,0x00,0x00,0x00,
 0x00,0x00,0x00,0x00,0x00,0x80,0x01,0x00,0x00,0x00,0x00,0x00,0x00,0x00,0x00,
 0x00,0x00,0x00,0x00,0x00,0x00,0x00,0x00,0x00,0x00,0x00,0x00,0x00,0x00,0x00,
 0x00,0x00,0x00,0x00,0x00,0x00,0x00,0x00,0x00,0x00};
